# xmcd
#
# Track frame offsets:
#	150
#	29814
#	43248
#	56832
#	68549
#	85407
#	99975
#	113373
#	126037
#
# Disc length: 1831 seconds
#
# Revision: 1
# Processed by: cddbd v1.5.2PL0 Copyright (c) Steve Scherf et al.
# Submitted via: audiograbber 1.83.01
#
DISCID=75072509
DTITLE=Ike and Tina Turner - The Hunter
DYEAR=1969
DGENRE=Blues
TTITLE0=The Hunter
TTITLE1=You Don't Love Me
TTITLE2=You Got My Running
TTITLE3=Bold Soul Sister
TTITLE4=I Smell Trouble
TTITLE5=The Things I Used To Do
TTITLE6=Early In The Morning
TTITLE7=You're Still My Baby
TTITLE8=I Know
EXTD=
EXTT0=
EXTT1=
EXTT2=
EXTT3=
EXTT4=
EXTT5=
EXTT6=
EXTT7=
EXTT8=
PLAYORDER=
